<?xml version="1.0" standalone="no"?>
<!DOCTYPE svg PUBLIC "-//W3C//DTD SVG 20010904//EN"
 "http://www.w3.org/TR/2001/REC-SVG-20010904/DTD/svg10.dtd">
<svg version="1.0" xmlns="http://www.w3.org/2000/svg"
 width="512.000000pt" height="512.000000pt" viewBox="0 0 512.000000 512.000000"
 preserveAspectRatio="xMidYMid meet">
<metadata>
Created by potrace 1.11, written by Peter Selinger 2001-2013
</metadata>
<g transform="translate(0.000000,512.000000) scale(0.100000,-0.100000)"
fill="#000000" stroke="none">
<path d="M2537 5078 c-14 -18 -63 -80 -107 -138 -45 -58 -86 -112 -93 -120 -7
-8 -23 -31 -37 -50 -13 -19 -29 -40 -35 -46 -5 -6 -18 -22 -27 -35 -10 -13
-46 -63 -80 -110 -35 -47 -74 -101 -88 -120 -13 -19 -28 -38 -32 -44 -24 -28
-157 -224 -280 -410 -76 -115 -142 -215 -146 -221 -4 -5 -12 -19 -19 -30 -21
-33 -97 -158 -108 -176 -47 -77 -197 -341 -211 -370 -10 -21 -21 -38 -26 -38
-4 0 -8 -8 -8 -18 0 -10 -4 -22 -9 -28 -12 -13 -154 -298 -157 -314 0 -3 -13
-32 -28 -65 -15 -33 -35 -78 -43 -100 -9 -22 -20 -44 -25 -49 -4 -6 -8 -16 -8
-22 0 -7 -5 -25 -12 -41 -6 -15 -12 -30 -13 -33 -1 -3 -7 -18 -14 -34 -6 -16
-13 -36 -15 -45 -2 -9 -8 -29 -15 -45 -10 -25 -42 -137 -56 -196 -18 -76 -35
-166 -42 -220 -15 -131 -8 -399 14 -495 2 -11 6 -33 9 -50 10 -56 11 -60 16
-75 3 -8 18 -55 33 -105 30 -98 38 -118 98 -245 40 -84 132 -233 162 -263 8
-9 15 -18 15 -21 0 -8 107 -132 156 -180 94 -93 235 -208 281 -229 13 -6 23
-14 23 -19 0 -4 7 -8 15 -8 8 0 15 -3 15 -7 0 -5 10 -13 23 -19 12 -6 67 -33
122 -61 105 -52 326 -133 380 -138 10 -1 40 -8 100 -21 17 -4 140 -9 274 -11
200 -4 260 -1 330 12 514 100 943 392 1209 820 53 87 132 247 132 269 0 8 4
16 8 18 8 3 76 224 86 278 3 14 8 36 11 50 13 58 20 164 20 295 -1 165 -8 237
-45 405 -13 63 -78 278 -88 295 -4 6 -7 15 -8 20 -3 15 -63 164 -85 211 -10
22 -19 43 -19 46 0 3 -23 54 -52 114 -28 60 -52 111 -53 114 0 3 -18 39 -39
80 -36 70 -53 101 -142 266 -52 97 -195 337 -210 355 -8 8 -14 20 -14 25 0 6
-7 19 -15 29 -9 11 -38 56 -65 100 -28 44 -54 87 -60 95 -6 8 -45 67 -88 131
-98 145 -185 271 -195 284 -4 6 -45 62 -89 125 -45 63 -85 117 -88 120 -3 3
-17 21 -30 40 -13 19 -27 37 -30 40 -3 3 -17 23 -32 45 -15 22 -38 52 -50 67
-13 14 -30 36 -38 49 -12 18 -83 111 -118 154 -4 6 -23 30 -42 55 -19 24 -44
55 -56 68 l-21 23 -26 -33z m-156 -899 c-5 -24 -12 -55 -14 -69 -3 -14 -11
-45 -17 -70 -7 -25 -14 -52 -16 -60 -1 -8 -9 -37 -17 -65 -8 -27 -31 -106 -52
-175 -20 -69 -60 -204 -90 -300 -29 -96 -58 -191 -63 -210 -5 -19 -22 -75 -37
-125 -31 -103 -74 -253 -79 -275 -2 -8 -20 -76 -40 -150 -44 -170 -89 -370
-116 -525 -21 -120 -23 -136 -37 -275 -12 -136 -6 -388 12 -490 3 -14 7 -43
11 -65 6 -44 12 -79 30 -162 3 -16 7 -37 9 -48 1 -11 11 -49 20 -85 9 -36 19
-75 21 -87 2 -12 9 -34 14 -48 5 -14 7 -25 4 -25 -4 0 -1 -7 6 -15 7 -8 10
-15 6 -15 -3 0 -1 -12 5 -27 6 -16 12 -35 14 -44 4 -20 41 -137 51 -163 6 -16
-5 -13 -62 19 -236 131 -431 341 -548 589 -33 71 -94 250 -101 301 -4 22 -10
56 -15 75 -9 37 -21 143 -24 223 -3 77 17 257 33 301 5 11 9 23 9 26 1 33 74
239 124 350 55 122 208 419 255 492 12 21 23 39 23 41 0 2 25 46 55 98 30 52
92 158 137 237 46 79 90 155 99 170 9 15 53 92 99 172 45 80 92 161 103 180
11 19 38 69 60 110 22 41 44 77 49 78 4 2 8 9 8 17 0 14 72 146 77 141 2 -2
-1 -23 -6 -47z"/>
</g>
</svg>
